<svg id="visual" viewBox="0 0 900 600" width="900" height="600" xmlns="http://www.w3.org/2000/svg" xmlns:xlink="http://www.w3.org/1999/xlink" version="1.1"><rect x="0" y="0" width="900" height="600" fill="#001220"></rect><path d="M0 399L21.5 411C43 423 86 447 128.8 453.5C171.7 460 214.3 449 257.2 434.8C300 420.7 343 403.3 385.8 400.3C428.7 397.3 471.3 408.7 514.2 422.2C557 435.7 600 451.3 642.8 452C685.7 452.7 728.3 438.3 771.2 431.7C814 425 857 426 878.5 426.5L900 427L900 601L878.5 601C857 601 814 601 771.2 601C728.3 601 685.7 601 642.8 601C600 601 557 601 514.2 601C471.3 601 428.7 601 385.8 601C343 601 300 601 257.2 601C214.3 601 171.7 601 128.8 601C86 601 43 601 21.5 601L0 601Z" fill="#038373"></path><path d="M0 395L21.5 399.8C43 404.7 86 414.3 128.8 424.2C171.7 434 214.3 444 257.2 451.7C300 459.3 343 464.7 385.8 457.3C428.7 450 471.3 430 514.2 419.7C557 409.3 600 408.7 642.8 415C685.7 421.3 728.3 434.7 771.2 434C814 433.3 857 418.7 878.5 411.3L900 404L900 601L878.5 601C857 601 814 601 771.2 601C728.3 601 685.7 601 642.8 601C600 601 557 601 514.2 601C471.3 601 428.7 601 385.8 601C343 601 300 601 257.2 601C214.3 601 171.7 601 128.8 601C86 601 43 601 21.5 601L0 601Z" fill="#00917b"></path><path d="M0 479L21.5 474.5C43 470 86 461 128.8 459.5C171.7 458 214.3 464 257.2 470.5C300 477 343 484 385.8 484.2C428.7 484.3 471.3 477.7 514.2 473.2C557 468.7 600 466.3 642.8 464.5C685.7 462.7 728.3 461.3 771.2 463.2C814 465 857 470 878.5 472.5L900 475L900 601L878.5 601C857 601 814 601 771.2 601C728.3 601 685.7 601 642.8 601C600 601 557 601 514.2 601C471.3 601 428.7 601 385.8 601C343 601 300 601 257.2 601C214.3 601 171.7 601 128.8 601C86 601 43 601 21.5 601L0 601Z" fill="#00a081"></path><path d="M0 514L21.5 507C43 500 86 486 128.8 482.7C171.7 479.3 214.3 486.7 257.2 488.2C300 489.7 343 485.3 385.8 481.3C428.7 477.3 471.3 473.7 514.2 474.2C557 474.7 600 479.3 642.8 487.3C685.7 495.3 728.3 506.7 771.2 513C814 519.3 857 520.7 878.5 521.3L900 522L900 601L878.5 601C857 601 814 601 771.2 601C728.3 601 685.7 601 642.8 601C600 601 557 601 514.2 601C471.3 601 428.7 601 385.8 601C343 601 300 601 257.2 601C214.3 601 171.7 601 128.8 601C86 601 43 601 21.5 601L0 601Z" fill="#00ae87"></path><path d="M0 545L21.5 544.7C43 544.3 86 543.7 128.8 538.5C171.7 533.3 214.3 523.7 257.2 517C300 510.3 343 506.7 385.8 509C428.7 511.3 471.3 519.7 514.2 528.3C557 537 600 546 642.8 546.5C685.7 547 728.3 539 771.2 535.5C814 532 857 533 878.5 533.5L900 534L900 601L878.5 601C857 601 814 601 771.2 601C728.3 601 685.7 601 642.8 601C600 601 557 601 514.2 601C471.3 601 428.7 601 385.8 601C343 601 300 601 257.2 601C214.3 601 171.7 601 128.8 601C86 601 43 601 21.5 601L0 601Z" fill="#00bd8b"></path><path d="M0 569L21.5 566C43 563 86 557 128.8 552.2C171.7 547.3 214.3 543.7 257.2 542.7C300 541.7 343 543.3 385.8 543.5C428.7 543.7 471.3 542.3 514.2 543.7C557 545 600 549 642.8 551.5C685.7 554 728.3 555 771.2 552.2C814 549.3 857 542.7 878.5 539.3L900 536L900 601L878.5 601C857 601 814 601 771.2 601C728.3 601 685.7 601 642.8 601C600 601 557 601 514.2 601C471.3 601 428.7 601 385.8 601C343 601 300 601 257.2 601C214.3 601 171.7 601 128.8 601C86 601 43 601 21.5 601L0 601Z" fill="#00cc8e"></path></svg>