<svg id="visual" viewBox="0 0 900 600" width="900" height="600" xmlns="http://www.w3.org/2000/svg" xmlns:xlink="http://www.w3.org/1999/xlink" version="1.1"><g stroke-width="1" stroke-linejoin="bevel"><path d="M389 319L335 382L414 415Z" fill="#00cc8e" stroke="#00cc8e"></path><path d="M414 415L531 301L389 319Z" fill="#074254" stroke="#074254"></path><path d="M335 382L390 493L414 415Z" fill="#00a495" stroke="#00a495"></path><path d="M414 415L390 493L473 438Z" fill="#006877" stroke="#006877"></path><path d="M389 319L280 307L335 382Z" fill="#08202e" stroke="#08202e"></path><path d="M335 382L279 475L390 493Z" fill="#006877" stroke="#006877"></path><path d="M496 235L367 226L389 319Z" fill="#00101c" stroke="#00101c"></path><path d="M389 319L367 226L280 307Z" fill="#00cc8e" stroke="#00cc8e"></path><path d="M232 373L279 475L335 382Z" fill="#035566" stroke="#035566"></path><path d="M280 307L232 373L335 382Z" fill="#007c86" stroke="#007c86"></path><path d="M473 438L531 301L414 415Z" fill="#08202e" stroke="#08202e"></path><path d="M390 493L472 511L473 438Z" fill="#00b894" stroke="#00b894"></path><path d="M473 438L627 375L531 301Z" fill="#00101c" stroke="#00101c"></path><path d="M395 600L472 511L390 493Z" fill="#074254" stroke="#074254"></path><path d="M205 229L227 316L280 307Z" fill="#093141" stroke="#093141"></path><path d="M280 307L227 316L232 373Z" fill="#074254" stroke="#074254"></path><path d="M367 226L316 212L280 307Z" fill="#007c86" stroke="#007c86"></path><path d="M531 301L496 235L389 319Z" fill="#074254" stroke="#074254"></path><path d="M367 226L420 77L316 212Z" fill="#007c86" stroke="#007c86"></path><path d="M99 413L184 478L232 373Z" fill="#00a495" stroke="#00a495"></path><path d="M232 373L184 478L279 475Z" fill="#08202e" stroke="#08202e"></path><path d="M266 600L395 600L390 493Z" fill="#00101c" stroke="#00101c"></path><path d="M266 600L390 493L279 475Z" fill="#093141" stroke="#093141"></path><path d="M316 212L205 229L280 307Z" fill="#00cc8e" stroke="#00cc8e"></path><path d="M227 316L99 413L232 373Z" fill="#074254" stroke="#074254"></path><path d="M620 536L473 438L472 511Z" fill="#08202e" stroke="#08202e"></path><path d="M620 536L627 375L473 438Z" fill="#00cc8e" stroke="#00cc8e"></path><path d="M531 301L619 271L496 235Z" fill="#035566" stroke="#035566"></path><path d="M627 375L619 271L531 301Z" fill="#00a495" stroke="#00a495"></path><path d="M184 478L266 600L279 475Z" fill="#00b894" stroke="#00b894"></path><path d="M395 600L537 600L472 511Z" fill="#093141" stroke="#093141"></path><path d="M537 600L620 536L472 511Z" fill="#074254" stroke="#074254"></path><path d="M537 600L560 600L620 536Z" fill="#093141" stroke="#093141"></path><path d="M85 294L99 413L227 316Z" fill="#00101c" stroke="#00101c"></path><path d="M184 478L169 600L266 600Z" fill="#093141" stroke="#093141"></path><path d="M521 63L420 77L496 235Z" fill="#00cc8e" stroke="#00cc8e"></path><path d="M496 235L420 77L367 226Z" fill="#093141" stroke="#093141"></path><path d="M316 212L277 82L205 229Z" fill="#00a495" stroke="#00a495"></path><path d="M99 413L122 529L184 478Z" fill="#035566" stroke="#035566"></path><path d="M620 536L692 413L627 375Z" fill="#007c86" stroke="#007c86"></path><path d="M627 375L716 313L619 271Z" fill="#007c86" stroke="#007c86"></path><path d="M420 77L277 82L316 212Z" fill="#08202e" stroke="#08202e"></path><path d="M205 229L85 294L227 316Z" fill="#009090" stroke="#009090"></path><path d="M108 221L85 294L205 229Z" fill="#006877" stroke="#006877"></path><path d="M708 183L628 176L619 271Z" fill="#00cc8e" stroke="#00cc8e"></path><path d="M619 271L628 176L496 235Z" fill="#006877" stroke="#006877"></path><path d="M122 529L169 600L184 478Z" fill="#009090" stroke="#009090"></path><path d="M196 77L108 221L205 229Z" fill="#009090" stroke="#009090"></path><path d="M729 600L669 532L620 536Z" fill="#007c86" stroke="#007c86"></path><path d="M620 536L669 532L692 413Z" fill="#08202e" stroke="#08202e"></path><path d="M772 335L716 313L692 413Z" fill="#035566" stroke="#035566"></path><path d="M692 413L716 313L627 375Z" fill="#00a495" stroke="#00a495"></path><path d="M628 176L521 63L496 235Z" fill="#006877" stroke="#006877"></path><path d="M189 0L196 77L277 82Z" fill="#00a495" stroke="#00a495"></path><path d="M122 529L136 600L169 600Z" fill="#093141" stroke="#093141"></path><path d="M0 600L136 600L122 529Z" fill="#00b894" stroke="#00b894"></path><path d="M316 0L277 82L420 77Z" fill="#00101c" stroke="#00101c"></path><path d="M277 82L196 77L205 229Z" fill="#035566" stroke="#035566"></path><path d="M690 111L577 67L628 176Z" fill="#00101c" stroke="#00101c"></path><path d="M628 176L577 67L521 63Z" fill="#08202e" stroke="#08202e"></path><path d="M464 0L420 77L521 63Z" fill="#035566" stroke="#035566"></path><path d="M464 0L416 0L420 77Z" fill="#093141" stroke="#093141"></path><path d="M716 313L708 183L619 271Z" fill="#074254" stroke="#074254"></path><path d="M416 0L316 0L420 77Z" fill="#00cc8e" stroke="#00cc8e"></path><path d="M588 0L464 0L521 63Z" fill="#007c86" stroke="#007c86"></path><path d="M809 400L772 335L692 413Z" fill="#093141" stroke="#093141"></path><path d="M716 313L819 171L708 183Z" fill="#074254" stroke="#074254"></path><path d="M85 294L0 410L99 413Z" fill="#035566" stroke="#035566"></path><path d="M99 413L0 537L122 529Z" fill="#00cc8e" stroke="#00cc8e"></path><path d="M0 304L0 410L85 294Z" fill="#006877" stroke="#006877"></path><path d="M669 532L767 461L692 413Z" fill="#006877" stroke="#006877"></path><path d="M0 237L85 294L108 221Z" fill="#009090" stroke="#009090"></path><path d="M0 237L0 304L85 294Z" fill="#006877" stroke="#006877"></path><path d="M708 183L690 111L628 176Z" fill="#006877" stroke="#006877"></path><path d="M577 67L588 0L521 63Z" fill="#00101c" stroke="#00101c"></path><path d="M819 171L690 111L708 183Z" fill="#00cc8e" stroke="#00cc8e"></path><path d="M0 127L0 237L108 221Z" fill="#009090" stroke="#009090"></path><path d="M560 600L729 600L620 536Z" fill="#035566" stroke="#035566"></path><path d="M669 532L729 600L767 461Z" fill="#074254" stroke="#074254"></path><path d="M87 0L79 95L196 77Z" fill="#00b894" stroke="#00b894"></path><path d="M196 77L79 95L108 221Z" fill="#093141" stroke="#093141"></path><path d="M316 0L189 0L277 82Z" fill="#007c86" stroke="#007c86"></path><path d="M0 410L0 537L99 413Z" fill="#00cc8e" stroke="#00cc8e"></path><path d="M673 0L588 0L577 67Z" fill="#08202e" stroke="#08202e"></path><path d="M767 461L809 400L692 413Z" fill="#035566" stroke="#035566"></path><path d="M802 0L673 0L690 111Z" fill="#08202e" stroke="#08202e"></path><path d="M900 381L809 400L900 478Z" fill="#093141" stroke="#093141"></path><path d="M0 537L0 600L122 529Z" fill="#007c86" stroke="#007c86"></path><path d="M729 600L773 600L767 461Z" fill="#074254" stroke="#074254"></path><path d="M79 95L0 127L108 221Z" fill="#00101c" stroke="#00101c"></path><path d="M0 0L0 127L79 95Z" fill="#00101c" stroke="#00101c"></path><path d="M819 171L716 313L772 335Z" fill="#035566" stroke="#035566"></path><path d="M690 111L673 0L577 67Z" fill="#08202e" stroke="#08202e"></path><path d="M189 0L87 0L196 77Z" fill="#00101c" stroke="#00101c"></path><path d="M900 277L819 171L772 335Z" fill="#00101c" stroke="#00101c"></path><path d="M900 478L809 400L767 461Z" fill="#035566" stroke="#035566"></path><path d="M809 400L900 381L772 335Z" fill="#00b894" stroke="#00b894"></path><path d="M900 103L823 98L819 171Z" fill="#035566" stroke="#035566"></path><path d="M819 171L823 98L690 111Z" fill="#074254" stroke="#074254"></path><path d="M900 381L900 277L772 335Z" fill="#074254" stroke="#074254"></path><path d="M773 600L900 478L767 461Z" fill="#08202e" stroke="#08202e"></path><path d="M87 0L0 0L79 95Z" fill="#00b894" stroke="#00b894"></path><path d="M900 277L900 203L819 171Z" fill="#007c86" stroke="#007c86"></path><path d="M900 0L802 0L823 98Z" fill="#006877" stroke="#006877"></path><path d="M823 98L802 0L690 111Z" fill="#007c86" stroke="#007c86"></path><path d="M773 600L900 600L900 478Z" fill="#00a495" stroke="#00a495"></path><path d="M900 203L900 103L819 171Z" fill="#074254" stroke="#074254"></path><path d="M900 103L900 0L823 98Z" fill="#007c86" stroke="#007c86"></path></g></svg>