<svg id="visual" viewBox="0 0 900 600" width="900" height="600" xmlns="http://www.w3.org/2000/svg" xmlns:xlink="http://www.w3.org/1999/xlink" version="1.1"><path d="M0 61L180 79L360 61L540 73L720 49L900 61L900 0L720 0L540 0L360 0L180 0L0 0Z" fill="#00cc8e"></path><path d="M0 121L180 145L360 133L540 121L720 103L900 139L900 59L720 47L540 71L360 59L180 77L0 59Z" fill="#00c08c"></path><path d="M0 175L180 181L360 187L540 175L720 145L900 175L900 137L720 101L540 119L360 131L180 143L0 119Z" fill="#00b388"></path><path d="M0 343L180 349L360 301L540 301L720 319L900 301L900 173L720 143L540 173L360 185L180 179L0 173Z" fill="#00a784"></path><path d="M0 451L180 427L360 415L540 367L720 385L900 397L900 299L720 317L540 299L360 299L180 347L0 341Z" fill="#009b7f"></path><path d="M0 547L180 553L360 565L540 559L720 553L900 571L900 395L720 383L540 365L360 413L180 425L0 449Z" fill="#008f79"></path><path d="M0 601L180 601L360 601L540 601L720 601L900 601L900 569L720 551L540 557L360 563L180 551L0 545Z" fill="#038373"></path></svg>